<svg width="32.000000" height="32.000000" viewBox="0 0 32 32" fill="none" xmlns="http://www.w3.org/2000/svg" xmlns:xlink="http://www.w3.org/1999/xlink">
	<desc>
			Created with Pixso.
	</desc>
	<defs/>
	<rect id="Ai" width="32.000000" height="32.000000" transform="translate(0.000000 -0.000061)" fill="#FFFFFF" fill-opacity="0"/>
	<path id="Vector" d="M29.85 10.27C30.99 13 31.29 16.02 30.71 18.92C30.13 21.83 28.69 24.5 26.59 26.58C25.2 27.98 23.55 29.09 21.74 29.85C19.92 30.61 17.97 30.99 16 30.99C14.03 30.99 12.08 30.61 10.26 29.85C8.44 29.09 6.79 27.98 5.4 26.58C4.01 25.2 2.9 23.55 2.14 21.73C1.38 19.91 1 17.96 1 15.99C1 14.03 1.38 12.08 2.14 10.26C2.9 8.44 4.01 6.79 5.4 5.4C6.79 4.01 8.44 2.9 10.26 2.14C12.08 1.38 14.03 0.99 16 0.99C17.96 0.99 19.91 1.38 21.73 2.14C23.55 2.9 25.2 4.01 26.59 5.4C27.99 6.79 29.1 8.45 29.85 10.27ZM23 22.43L23 12.89C23 12.79 22.96 12.75 22.89 12.75L20.95 12.75C20.85 12.75 20.8 12.79 20.8 12.87L20.81 22.43C20.81 22.45 20.81 22.47 20.82 22.49C20.83 22.51 20.84 22.53 20.85 22.54C20.87 22.56 20.88 22.57 20.9 22.57C20.92 22.58 20.95 22.58 20.97 22.58L22.86 22.58C22.95 22.59 23 22.53 23 22.43ZM23.12 10.15C23.12 9.41 22.71 8.99 21.9 8.9C21.57 8.89 21.25 9.01 21 9.23C20.88 9.35 20.79 9.49 20.72 9.65C20.66 9.81 20.64 9.98 20.65 10.15C20.65 10.93 21.05 11.35 21.87 11.39C22.2 11.4 22.52 11.29 22.77 11.06C22.89 10.94 22.98 10.8 23.04 10.64C23.1 10.48 23.13 10.32 23.12 10.15ZM18.9 22.59C18.96 22.59 19 22.56 19 22.51C19 22.49 18.35 20.28 17.06 15.89C15.77 11.49 15.12 9.29 15.1 9.28C15.08 9.26 14.19 9.25 12.44 9.25C12.39 9.25 12.36 9.29 12.36 9.37C12.36 9.59 12.34 9.8 12.31 10.01C12.28 10.15 11.68 12.28 10.51 16.4C9.36 20.42 8.78 22.45 8.78 22.48C8.78 22.51 8.79 22.54 8.81 22.56C9.14 22.59 9.47 22.6 9.8 22.59C10.14 22.6 10.49 22.59 10.83 22.56C10.85 22.55 11.19 21.31 11.84 18.84L15.69 18.84L16.71 22.51C16.73 22.56 16.78 22.59 16.87 22.59L18.9 22.59Z" fill="#2B2D30" fill-opacity="1.000000" fill-rule="nonzero"/>
	<path id="Vector" d="M23 12.89L23 22.43C23 22.53 22.95 22.59 22.85 22.59L20.97 22.59C20.95 22.59 20.92 22.59 20.9 22.58C20.88 22.57 20.87 22.56 20.85 22.55C20.84 22.53 20.83 22.51 20.82 22.49C20.81 22.48 20.81 22.45 20.81 22.43L20.8 12.87C20.8 12.79 20.85 12.75 20.95 12.75L22.89 12.75C22.96 12.75 23 12.8 23 12.89Z" fill="#2E7EE0" fill-opacity="1.000000" fill-rule="nonzero"/>
	<path id="Vector" d="M21.91 8.9C22.71 9 23.12 9.41 23.12 10.15C23.13 10.32 23.1 10.49 23.04 10.65C22.98 10.81 22.89 10.95 22.77 11.07C22.52 11.29 22.2 11.41 21.87 11.4C21.06 11.36 20.65 10.94 20.65 10.15C20.64 9.98 20.66 9.81 20.72 9.65C20.78 9.49 20.88 9.35 21 9.23C21.25 9.01 21.57 8.89 21.91 8.9Z" fill="#2E7EE0" fill-opacity="1.000000" fill-rule="nonzero"/>
	<path id="Vector" d="M19 22.51C19 22.56 18.97 22.59 18.9 22.59L16.88 22.59C16.79 22.59 16.73 22.56 16.72 22.51L15.7 18.84L11.84 18.84C11.19 21.31 10.85 22.55 10.83 22.56C10.49 22.59 10.14 22.6 9.8 22.59C9.47 22.6 9.14 22.59 8.81 22.56C8.79 22.54 8.78 22.51 8.79 22.48C8.79 22.45 9.36 20.42 10.51 16.4C11.68 12.28 12.28 10.15 12.31 10.01C12.34 9.8 12.36 9.59 12.36 9.37C12.36 9.29 12.39 9.25 12.44 9.25C14.19 9.25 15.08 9.26 15.1 9.28C15.12 9.29 15.78 11.49 17.06 15.89C18.35 20.28 19 22.49 19 22.51ZM15.19 16.89L14.8 15.28C14.28 13.32 13.94 11.96 13.76 11.18L13.73 11.18C13.52 12.34 13.05 14.24 12.35 16.89L15.19 16.89Z" fill="#2E7EE0" fill-opacity="1.000000" fill-rule="nonzero"/>
	<path id="Vector" d="M14.8 15.28L15.19 16.89L12.35 16.89C13.05 14.24 13.52 12.34 13.74 11.18L13.76 11.18C13.94 11.96 14.28 13.32 14.8 15.28Z" fill="#2B2D30" fill-opacity="1.000000" fill-rule="nonzero"/>
	<path id="Vector" d="M3.53 24.33C1.88 21.86 1.01 18.96 1.01 15.99C1.01 14.03 1.39 12.08 2.14 10.26C2.9 8.44 4 6.78 5.39 5.39C6.78 4 8.44 2.9 10.26 2.14C12.08 1.39 14.03 1.01 16 1.01C17.96 1.01 19.91 1.39 21.73 2.14C23.55 2.9 25.21 4 26.6 5.39C27.99 6.78 29.09 8.44 29.85 10.26C30.6 12.08 30.98 14.03 30.98 15.99C30.98 17.96 30.6 19.91 29.85 21.73C29.09 23.55 27.99 25.2 26.6 26.6C25.21 27.99 23.55 29.09 21.73 29.84C19.91 30.6 17.96 30.98 16 30.98C14.03 30.98 12.08 30.6 10.27 29.85C7.53 28.72 5.18 26.8 3.53 24.33Z" stroke="#2E7EE0" stroke-opacity="1.000000" stroke-width="2.000000"/>
</svg>
