<svg width="40.000000" height="40.000000" viewBox="0 0 40 40" fill="none" xmlns="http://www.w3.org/2000/svg" xmlns:xlink="http://www.w3.org/1999/xlink">
	<desc>
			Created with Pixso.
	</desc>
	<defs>
		<clipPath id="clip2_160">
			<rect id="color theory" width="40.000000" height="40.000000" fill="white" fill-opacity="0"/>
		</clipPath>
	</defs>
	<rect id="color theory" width="40.000000" height="40.000000" fill="#FFFFFF" fill-opacity="0"/>
	<g clip-path="url(#clip2_160)">
		<path id="Vector" d="M14.72 25.53C11.89 24.37 9.54 22.33 7.98 19.63C7.47 18.75 7.07 17.83 6.76 16.88C2.77 18.69 0 22.71 0 27.37C0 33.73 5.17 38.9 11.52 38.9C14.03 38.9 16.35 38.1 18.24 36.74C15.98 34.27 14.6 30.98 14.6 27.37C14.6 26.75 14.64 26.13 14.72 25.53Z" fill="#FFFFFF" fill-opacity="1.000000" fill-rule="nonzero"/>
		<path id="Vector" d="M19.99 16.4C22.34 14.58 25.28 13.5 28.47 13.5C29.5 13.5 30.5 13.62 31.46 13.83C31.69 11.51 31.23 9.1 29.98 6.94C28.44 4.27 25.95 2.36 22.98 1.56C21.99 1.3 20.98 1.17 19.98 1.17C17.98 1.17 16.01 1.69 14.23 2.72C11.56 4.26 9.66 6.74 8.86 9.72C8.5 11.08 8.38 12.47 8.52 13.83C9.49 13.62 10.49 13.5 11.52 13.5C14.71 13.5 17.65 14.58 19.99 16.4Z" fill="#FFFFFF" fill-opacity="1.000000" fill-rule="nonzero"/>
		<path id="Vector" d="M10.01 18.46C11.23 20.58 13.05 22.22 15.24 23.2C15.85 21.25 16.89 19.49 18.24 18.01C16.35 16.65 14.03 15.85 11.52 15.85C10.65 15.85 9.8 15.94 8.98 16.13C9.24 16.93 9.58 17.72 10.01 18.46Z" fill="#FFFFFF" fill-opacity="1.000000" fill-rule="nonzero"/>
		<path id="Vector" d="M40 27.37C40 22.71 37.21 18.68 33.22 16.87C32.21 20.07 30.05 22.91 26.93 24.71C26.39 25.02 25.84 25.3 25.27 25.53C25.35 26.13 25.39 26.75 25.39 27.37C25.39 30.98 24.01 34.27 21.75 36.74C23.64 38.1 25.96 38.9 28.47 38.9C34.82 38.9 40 33.73 40 27.37Z" fill="#FFFFFF" fill-opacity="1.000000" fill-rule="nonzero"/>
		<path id="Vector" d="M23 26.25C22.02 26.47 21.02 26.58 20.02 26.58C19.01 26.58 18 26.46 17 26.24C16.96 26.61 16.94 26.99 16.94 27.37C16.94 30.38 18.1 33.13 20 35.18C21.89 33.13 23.05 30.38 23.05 27.37C23.05 26.99 23.03 26.62 23 26.25Z" fill="#FFFFFF" fill-opacity="1.000000" fill-rule="nonzero"/>
		<path id="Vector" d="M31 16.13C30.18 15.94 29.34 15.85 28.47 15.85C25.96 15.85 23.64 16.65 21.75 18.01C23.1 19.49 24.14 21.25 24.75 23.2C25.09 23.05 25.43 22.87 25.76 22.68C28.37 21.18 30.16 18.8 31 16.13Z" fill="#FFFFFF" fill-opacity="1.000000" fill-rule="nonzero"/>
		<path id="Vector" d="M17.46 23.94C19.15 24.33 20.88 24.32 22.53 23.95C22.02 22.3 21.14 20.81 20 19.57C18.85 20.81 17.98 22.3 17.46 23.94Z" fill="#FFFFFF" fill-opacity="1.000000" fill-rule="nonzero"/>
	</g>
</svg>
