<svg width="50.000000" height="51.000000" viewBox="0 0 50 51" fill="none" xmlns="http://www.w3.org/2000/svg" xmlns:xlink="http://www.w3.org/1999/xlink">
	<desc>
			Created with Pixso.
	</desc>
	<defs/>
	<rect id="Frame 5" width="48.000000" height="48.000000" transform="translate(1.000000 1.000000)" fill="#FFFFFF" fill-opacity="0"/>
	<path id="Shape_23_" d="M35.84 32.49L31.16 32.49L28.27 28.65L29.71 24.33L34.09 22.62L37.93 25.31L35.84 32.49ZM28.71 37.32L21.28 37.32L19.71 33.12L22.58 29.28L27.41 29.28L30.28 33.12L28.71 37.32ZM14.15 32.49L12.06 25.32L15.9 22.62L20.28 24.33L21.72 28.65L18.83 32.49L14.15 32.49ZM12.01 17.5L13.71 17.49L15.19 21.81L11.45 24.43L10.08 23.42C10.3 21.33 10.96 19.31 12.01 17.5ZM20.7 12.8L24.46 15.62L24.46 20.44L20.63 23.32L16.25 21.61L14.73 17.15L20.7 12.8ZM29.29 12.8L35.26 17.15L33.74 21.61L29.36 23.32L25.53 20.44L25.53 15.62L29.29 12.8ZM27.29 28.21L22.7 28.21L21.34 24.12L24.99 21.38L28.65 24.12L27.29 28.21ZM38.54 24.44L34.8 21.81L36.28 17.49L37.98 17.5C39.03 19.32 39.69 21.34 39.91 23.43L38.54 24.44ZM37.29 16.42L36.07 16.42L29.73 11.81L29.35 10.64C32.57 11.63 35.36 13.66 37.29 16.42ZM28.11 10.32L28.65 11.94L24.99 14.68L21.34 11.94L21.87 10.32C23.93 9.89 26.05 9.89 28.11 10.32L28.11 10.32ZM20.64 10.64L20.26 11.81L13.92 16.41L12.7 16.42C14.62 13.66 17.42 11.63 20.64 10.64ZM10 24.7L10.98 25.42L13.19 33.05L12.98 33.96C11.04 31.37 9.99 28.23 9.99 25C9.99 24.9 10 24.8 10 24.7ZM13.83 35L14.17 33.57L18.73 33.57L20.26 37.66L18.89 38.69C16.97 37.83 15.24 36.57 13.83 35ZM20.06 39.16L21.08 38.39L28.91 38.39L29.93 39.16C26.74 40.27 23.26 40.27 20.06 39.16L20.06 39.16ZM31.1 38.69L29.72 37.66L31.26 33.57L35.82 33.57L36.16 35C34.75 36.57 33.02 37.83 31.1 38.69ZM37.01 33.96L36.8 33.04L39.01 25.42L39.99 24.7C39.99 24.8 39.99 24.9 39.99 25C40 28.23 38.95 31.37 37.01 33.96Z" fill="#2E7EE0" fill-opacity="1.000000" fill-rule="nonzero"/>
	<path id="Vector" d="M5.03 38.35C2.39 34.39 0.99 29.75 1 24.99C0.99 21.84 1.61 18.72 2.81 15.8C4.01 12.89 5.78 10.24 8.01 8.01C10.24 5.78 12.89 4.01 15.8 2.81C18.72 1.61 21.84 0.99 25 1C28.15 0.99 31.27 1.61 34.19 2.81C37.1 4.01 39.75 5.78 41.98 8.01C44.21 10.24 45.98 12.89 47.18 15.8C48.38 18.72 49 21.84 48.99 24.99C49 28.15 48.38 31.27 47.18 34.18C45.98 37.1 44.21 39.75 41.98 41.98C39.75 44.21 37.1 45.97 34.19 47.18C31.27 48.38 28.15 49 25 48.99C21.85 49.01 18.73 48.39 15.82 47.19C11.43 45.37 7.67 42.3 5.03 38.35Z" stroke="#2E7EE0" stroke-opacity="1.000000" stroke-width="2.000000"/>
</svg>
