<svg width="50.000000" height="51.000000" viewBox="0 0 50 51" fill="none" xmlns="http://www.w3.org/2000/svg" xmlns:xlink="http://www.w3.org/1999/xlink">
	<desc>
			Created with Pixso.
	</desc>
	<defs/>
	<rect id="Frame 7" width="48.000000" height="48.000000" transform="translate(1.000000 1.000000)" fill="#FFFFFF" fill-opacity="0"/>
	<path id="Vector" d="M30.33 24.17L10.87 24.17C10.39 24.17 10 24.57 10 25.05L10 37.36C10 38.81 11.18 40 12.63 40L28.57 40C30.02 40 31.21 38.81 31.21 37.36L31.21 25.05C31.21 24.57 30.81 24.17 30.33 24.17ZM25.82 29.45C25.82 32.36 23.45 34.72 20.54 34.72C17.63 34.72 15.27 32.36 15.27 29.45L15.27 28.57C15.27 28.08 15.66 27.69 16.15 27.69C16.63 27.69 17.03 28.08 17.03 28.57L17.03 29.45C17.03 31.39 18.6 32.96 20.54 32.96C22.48 32.96 24.06 31.39 24.06 29.45L24.06 28.57C24.06 28.08 24.45 27.69 24.94 27.69C25.42 27.69 25.82 28.08 25.82 28.57L25.82 29.45Z" fill="#2E7EE0" fill-opacity="1.000000" fill-rule="nonzero"/>
	<path id="Vector" d="M39.12 17.14L34.6 17.14L34.6 15.27C34.6 12.36 32.24 10 29.33 10C26.42 10 24.06 12.36 24.06 15.27L24.06 17.14L19.55 17.14C19.06 17.14 18.67 17.54 18.67 18.02L18.67 22.42L30.33 22.42C31.78 22.42 32.96 23.6 32.96 25.05L32.96 37.36C32.96 38.35 32.62 39.26 32.06 40L37.36 40C38.81 40 40 38.81 40 37.36L40 18.02C40 17.54 39.6 17.14 39.12 17.14ZM32.85 17.14L25.82 17.14L25.82 15.27C25.82 13.33 27.39 11.75 29.33 11.75C31.27 11.75 32.85 13.33 32.85 15.27L32.85 17.14Z" fill="#2E7EE0" fill-opacity="1.000000" fill-rule="nonzero"/>
	<path id="Vector" d="M5.03 38.35C2.39 34.39 0.99 29.75 1 24.99C0.99 21.84 1.61 18.72 2.81 15.8C4.01 12.89 5.78 10.24 8.01 8.01C10.24 5.78 12.89 4.01 15.8 2.81C18.72 1.61 21.84 0.99 25 1C28.15 0.99 31.27 1.61 34.19 2.81C37.1 4.01 39.75 5.78 41.98 8.01C44.21 10.24 45.98 12.89 47.18 15.8C48.38 18.72 49 21.84 48.99 24.99C49 28.15 48.38 31.27 47.18 34.18C45.98 37.1 44.21 39.75 41.98 41.98C39.75 44.21 37.1 45.97 34.19 47.18C31.27 48.38 28.15 49 25 48.99C21.85 49.01 18.73 48.39 15.82 47.19C11.43 45.37 7.67 42.3 5.03 38.35Z" stroke="#2E7EE0" stroke-opacity="1.000000" stroke-width="2.000000"/>
</svg>
