<svg width="50.000000" height="51.000000" viewBox="0 0 50 51" fill="none" xmlns="http://www.w3.org/2000/svg" xmlns:xlink="http://www.w3.org/1999/xlink">
	<desc>
			Created with Pixso.
	</desc>
	<defs/>
	<rect id="Frame 6" width="48.000000" height="48.000000" transform="translate(1.000000 1.000000)" fill="#FFFFFF" fill-opacity="0"/>
	<path id="Vector" d="M39.9 31.98L38.67 25.26C38.27 22.19 35.65 19.88 32.55 19.88L17.44 19.88C14.34 19.88 11.72 22.19 11.32 25.26L10.09 31.98C9.47 35.31 11.99 38.43 15.37 38.57C18.58 38.69 21.17 36.07 21.18 32.94C21.18 32.93 20.81 32.93 28.81 32.93C28.81 36.05 31.4 38.7 34.62 38.57C37.98 38.43 40.52 35.33 39.9 31.98ZM20.76 27.76L19.29 27.76L19.29 29.23C19.29 29.71 18.9 30.11 18.41 30.11C17.93 30.11 17.53 29.71 17.53 29.23L17.53 27.76L16.06 27.76C15.58 27.76 15.18 27.36 15.18 26.88C15.18 26.39 15.58 25.99 16.06 25.99L17.53 25.99L17.53 24.53C17.53 24.04 17.93 23.64 18.41 23.64C18.9 23.64 19.29 24.04 19.29 24.53L19.29 25.99L20.76 25.99C21.25 25.99 21.65 26.39 21.65 26.88C21.65 27.36 21.25 27.76 20.76 27.76ZM30.11 26.93C30.11 27.42 29.71 27.82 29.23 27.82C28.74 27.82 28.34 27.42 28.34 26.93L28.34 26.88C28.34 26.39 28.74 25.99 29.23 25.99C29.71 25.99 30.11 26.39 30.11 26.88L30.11 26.93ZM32.45 29.31C32.41 29.78 32.01 30.15 31.49 30.1C31 30.05 30.65 29.61 30.7 29.14C30.75 28.63 31.22 28.26 31.75 28.36C32.22 28.46 32.5 28.89 32.45 29.31ZM32.45 24.61C32.4 25.11 31.96 25.45 31.49 25.4C31 25.35 30.65 24.91 30.7 24.44C30.75 23.93 31.22 23.56 31.75 23.66C32.22 23.76 32.5 24.19 32.45 24.61ZM34.81 26.93C34.81 27.42 34.41 27.82 33.93 27.82C33.44 27.82 33.05 27.42 33.05 26.93L33.05 26.88C33.05 26.39 33.44 25.99 33.93 25.99C34.41 25.99 34.81 26.39 34.81 26.88L34.81 26.93Z" fill="#2E7EE0" fill-opacity="1.000000" fill-rule="nonzero"/>
	<path id="Vector" d="M22.71 16.13C22.37 16.47 22.37 17.03 22.71 17.38C23.05 17.72 23.61 17.72 23.96 17.38C24.53 16.8 25.46 16.8 26.03 17.38C26.38 17.72 26.94 17.72 27.28 17.38C27.62 17.03 27.62 16.47 27.28 16.13C26.02 14.87 23.97 14.87 22.71 16.13Z" fill="#2E7EE0" fill-opacity="1.000000" fill-rule="nonzero"/>
	<path id="Vector" d="M21.3 14.72C23.34 12.67 26.65 12.67 28.69 14.72C29.04 15.06 29.6 15.06 29.94 14.72C30.28 14.37 30.28 13.81 29.94 13.47C27.21 10.74 22.78 10.74 20.05 13.47C19.71 13.81 19.71 14.37 20.05 14.72C20.39 15.06 20.95 15.06 21.3 14.72Z" fill="#2E7EE0" fill-opacity="1.000000" fill-rule="nonzero"/>
	<path id="Vector" d="M5.03 38.35C2.39 34.39 0.99 29.75 1 24.99C0.99 21.84 1.61 18.72 2.81 15.8C4.01 12.89 5.78 10.24 8.01 8.01C10.24 5.78 12.89 4.01 15.8 2.81C18.72 1.61 21.84 0.99 25 1C28.15 0.99 31.27 1.61 34.19 2.81C37.1 4.01 39.75 5.78 41.98 8.01C44.21 10.24 45.98 12.89 47.18 15.8C48.38 18.72 49 21.84 48.99 24.99C49 28.15 48.38 31.27 47.18 34.18C45.98 37.1 44.21 39.75 41.98 41.98C39.75 44.21 37.1 45.97 34.19 47.18C31.27 48.38 28.15 49 25 48.99C21.85 49.01 18.73 48.39 15.82 47.19C11.43 45.37 7.67 42.3 5.03 38.35Z" stroke="#2E7EE0" stroke-opacity="1.000000" stroke-width="2.000000"/>
</svg>
