<svg width="25.000000" height="25.000000" viewBox="0 0 25 25" fill="none" xmlns="http://www.w3.org/2000/svg" xmlns:xlink="http://www.w3.org/1999/xlink">
	<desc>
			Created with Pixso.
	</desc>
	<defs>
		<clipPath id="clip2_54">
			<rect id="insta" width="25.000000" height="25.000000" fill="white" fill-opacity="0"/>
		</clipPath>
	</defs>
	<rect id="insta" width="25.000000" height="25.000000" fill="#FFFFFF" fill-opacity="0"/>
	<g clip-path="url(#clip2_54)">
		<path id="Vector" d="M14.89 12.5C14.89 13.82 13.82 14.89 12.5 14.89C11.17 14.89 10.1 13.82 10.1 12.5C10.1 11.17 11.17 10.1 12.5 10.1C13.82 10.1 14.89 11.17 14.89 12.5Z" fill="#2E7EE0" fill-opacity="1.000000" fill-rule="nonzero"/>
		<path id="Vector" d="M18.09 8.26C17.98 7.95 17.79 7.67 17.55 7.44C17.32 7.2 17.04 7.01 16.73 6.9C16.48 6.8 16.1 6.68 15.4 6.65C14.64 6.62 14.41 6.61 12.5 6.61C10.58 6.61 10.35 6.62 9.59 6.65C8.89 6.68 8.51 6.8 8.26 6.9C7.95 7.01 7.67 7.2 7.44 7.44C7.2 7.67 7.01 7.95 6.9 8.26C6.8 8.51 6.68 8.89 6.65 9.59C6.62 10.35 6.61 10.58 6.61 12.5C6.61 14.41 6.62 14.64 6.65 15.4C6.68 16.1 6.8 16.48 6.9 16.73C7.01 17.04 7.2 17.32 7.44 17.55C7.67 17.79 7.95 17.98 8.26 18.09C8.51 18.19 8.89 18.31 9.59 18.34C10.35 18.37 10.58 18.38 12.49 18.38C14.41 18.38 14.64 18.37 15.4 18.34C16.1 18.31 16.48 18.19 16.73 18.09C17.35 17.85 17.85 17.35 18.09 16.73C18.19 16.48 18.31 16.1 18.34 15.4C18.37 14.64 18.38 14.41 18.38 12.5C18.38 10.58 18.37 10.35 18.34 9.59C18.31 8.89 18.19 8.51 18.09 8.26ZM12.5 16.18C10.46 16.18 8.81 14.53 8.81 12.5C8.81 10.46 10.46 8.81 12.5 8.81C14.53 8.81 16.18 10.46 16.18 12.5C16.18 14.53 14.53 16.18 12.5 16.18ZM16.33 9.52C15.85 9.52 15.47 9.14 15.47 8.66C15.47 8.19 15.85 7.8 16.33 7.8C16.8 7.8 17.19 8.19 17.19 8.66C17.19 9.14 16.8 9.52 16.33 9.52Z" fill="#2E7EE0" fill-opacity="1.000000" fill-rule="nonzero"/>
		<path id="Vector" d="M12.5 0C5.59 0 0 5.59 0 12.5C0 19.4 5.59 25 12.5 25C19.4 25 25 19.4 25 12.5C25 5.59 19.4 0 12.5 0ZM19.63 15.45C19.59 16.22 19.47 16.74 19.3 17.2C18.92 18.16 18.16 18.92 17.2 19.3C16.74 19.47 16.22 19.59 15.45 19.63C14.69 19.66 14.44 19.67 12.5 19.67C10.55 19.67 10.3 19.66 9.54 19.63C8.77 19.59 8.25 19.47 7.79 19.3C7.31 19.12 6.88 18.83 6.52 18.47C6.16 18.11 5.87 17.68 5.69 17.2C5.52 16.74 5.4 16.22 5.36 15.45C5.33 14.69 5.32 14.44 5.32 12.5C5.32 10.55 5.33 10.3 5.36 9.54C5.4 8.77 5.52 8.25 5.69 7.79C5.87 7.31 6.16 6.88 6.52 6.52C6.88 6.16 7.31 5.87 7.79 5.69C8.25 5.52 8.77 5.4 9.54 5.36C10.3 5.33 10.55 5.32 12.5 5.32C14.44 5.32 14.69 5.33 15.45 5.36C16.22 5.4 16.74 5.52 17.2 5.69C17.68 5.87 18.11 6.16 18.47 6.52C18.83 6.88 19.12 7.31 19.3 7.79C19.47 8.25 19.59 8.77 19.63 9.54C19.66 10.3 19.67 10.55 19.67 12.5C19.67 14.44 19.66 14.69 19.63 15.45Z" fill="#2E7EE0" fill-opacity="1.000000" fill-rule="nonzero"/>
	</g>
</svg>
