<svg width="40.000000" height="40.000000" viewBox="0 0 40 40" fill="none" xmlns="http://www.w3.org/2000/svg" xmlns:xlink="http://www.w3.org/1999/xlink">
	<desc>
			Created with Pixso.
	</desc>
	<defs>
		<clipPath id="clip2_168">
			<rect id="layout" width="40.000000" height="40.000000" fill="white" fill-opacity="0"/>
		</clipPath>
	</defs>
	<rect id="layout" width="40.000000" height="40.000000" fill="#FFFFFF" fill-opacity="0"/>
	<g clip-path="url(#clip2_168)">
		<path id="Vector" d="M32.85 0L21.42 0L21.42 18.57L40 18.57L40 7.14C39.99 3.19 36.8 0 32.85 0Z" fill="#FFFFFF" fill-opacity="1.000000" fill-rule="nonzero"/>
		<path id="Vector" d="M7.14 0C3.19 0 0 3.19 0 7.14L0 32.85C0 36.8 3.19 39.99 7.14 39.99L18.57 39.99L18.57 0L7.14 0Z" fill="#FFFFFF" fill-opacity="1.000000" fill-rule="nonzero"/>
		<path id="Vector" d="M21.42 21.42L21.42 40L32.85 40C36.8 39.99 39.99 36.8 39.99 32.85L39.99 21.42L21.42 21.42Z" fill="#FFFFFF" fill-opacity="1.000000" fill-rule="nonzero"/>
	</g>
</svg>
