<svg width="25.000000" height="25.000000" viewBox="0 0 25 25" fill="none" xmlns="http://www.w3.org/2000/svg" xmlns:xlink="http://www.w3.org/1999/xlink">
	<desc>
			Created with Pixso.
	</desc>
	<defs>
		<clipPath id="clip2_58">
			<rect id="linkdian" width="25.000000" height="25.000000" fill="white" fill-opacity="0"/>
		</clipPath>
	</defs>
	<rect id="linkdian" width="25.000000" height="25.000000" fill="#FFFFFF" fill-opacity="0"/>
	<g clip-path="url(#clip2_58)">
		<path id="Vector" d="M12.5 0C5.59 0 0 5.59 0 12.5C0 19.4 5.59 25 12.5 25C19.4 25 25 19.4 25 12.5C25 5.59 19.4 0 12.5 0ZM8.86 18.89L5.82 18.89L5.82 9.73L8.86 9.73L8.86 18.89ZM7.34 8.48L7.32 8.48C6.3 8.48 5.64 7.78 5.64 6.9C5.64 6 6.32 5.32 7.36 5.32C8.4 5.32 9.04 6 9.06 6.9C9.06 7.78 8.4 8.48 7.34 8.48ZM19.84 18.89L16.8 18.89L16.8 13.99C16.8 12.76 16.36 11.92 15.25 11.92C14.41 11.92 13.91 12.49 13.69 13.03C13.61 13.23 13.59 13.5 13.59 13.78L13.59 18.89L10.55 18.89C10.55 18.89 10.59 10.59 10.55 9.73L13.59 9.73L13.59 11.03C14 10.41 14.72 9.52 16.34 9.52C18.34 9.52 19.84 10.83 19.84 13.64L19.84 18.89Z" fill="#2E7EE0" fill-opacity="1.000000" fill-rule="nonzero"/>
	</g>
</svg>
