<svg width="30.000000" height="30.000000" viewBox="0 0 30 30" fill="none" xmlns="http://www.w3.org/2000/svg" xmlns:xlink="http://www.w3.org/1999/xlink">
	<desc>
			Created with Pixso.
	</desc>
	<defs>
		<clipPath id="clip2_102">
			<rect id="location" width="30.000000" height="30.000000" fill="white" fill-opacity="0"/>
		</clipPath>
	</defs>
	<rect id="location" width="30.000000" height="30.000000" fill="#FFFFFF" fill-opacity="0"/>
	<g clip-path="url(#clip2_102)">
		<path id="Vector" d="M17.45 11.05C17.45 12.39 16.37 13.47 15.04 13.47C13.71 13.47 12.62 12.39 12.62 11.05C12.62 9.72 13.71 8.64 15.04 8.64C16.37 8.64 17.45 9.72 17.45 11.05Z" fill="#2E7EE0" fill-opacity="1.000000" fill-rule="evenodd"/>
		<path id="Vector" d="M15 0C6.71 0 0 6.71 0 14.99C0 23.28 6.71 30 15 30C23.28 30 30 23.28 30 14.99C30 6.71 23.28 0 15 0ZM14.96 6.86C14.98 6.86 14.99 6.86 15 6.86C15.01 6.86 15.02 6.86 15.03 6.86C17.55 6.9 19.61 8.99 19.61 11.52C19.61 14.61 16.31 17.74 15 18.86C14.91 18.79 14.81 18.7 14.71 18.61C14.71 18.61 14.7 18.61 14.7 18.61C13.25 17.31 10.38 14.4 10.38 11.52C10.38 8.99 12.44 6.9 14.96 6.86ZM15.06 23.22C12.29 23.22 9.49 22.43 9.49 20.91C9.49 19.85 10.87 19.14 12.65 18.81C12.99 19.16 13.32 19.46 13.61 19.72C11.67 19.93 10.53 20.55 10.53 20.91C10.53 21.36 12.25 22.18 15.06 22.18C17.87 22.18 19.59 21.36 19.59 20.91C19.59 20.54 18.41 19.91 16.4 19.7C16.69 19.45 17.01 19.14 17.36 18.79C19.19 19.11 20.63 19.82 20.63 20.91C20.63 22.43 17.83 23.22 15.06 23.22Z" fill="#2E7EE0" fill-opacity="1.000000" fill-rule="nonzero"/>
	</g>
</svg>
