<svg width="30.000000" height="30.000000" viewBox="0 0 30 30" fill="none" xmlns="http://www.w3.org/2000/svg" xmlns:xlink="http://www.w3.org/1999/xlink">
	<desc>
			Created with Pixso.
	</desc>
	<defs>
		<clipPath id="clip2_78">
			<rect id="mail" width="30.000000" height="30.000000" fill="white" fill-opacity="0"/>
		</clipPath>
	</defs>
	<rect id="mail" width="30.000000" height="30.000000" fill="#FFFFFF" fill-opacity="0"/>
	<g clip-path="url(#clip2_78)">
		<path id="Vector" d="M15 0C6.71 0 0 6.71 0 14.99C0 23.28 6.71 30 15 30C23.28 30 30 23.28 30 14.99C30 6.71 23.28 0 15 0ZM15 5.26L23.87 10.8L6.12 10.8L15 5.26ZM23.98 19.64L23.98 19.64C23.98 20.53 23.26 21.24 22.37 21.24L7.62 21.24C6.73 21.24 6.01 20.53 6.01 19.64L6.01 11.15C6.01 11.06 6.02 10.97 6.04 10.88L14.52 16.16C14.53 16.17 14.54 16.18 14.55 16.18C14.56 16.19 14.57 16.19 14.58 16.2C14.64 16.23 14.7 16.25 14.77 16.27C14.77 16.27 14.78 16.27 14.79 16.28C14.86 16.29 14.93 16.3 15 16.3L15 16.3C15 16.3 15 16.3 15 16.3C15.07 16.3 15.14 16.29 15.21 16.28C15.21 16.27 15.22 16.27 15.23 16.27C15.29 16.25 15.35 16.23 15.41 16.2C15.42 16.19 15.43 16.19 15.44 16.18C15.46 16.18 15.47 16.17 15.48 16.16L23.96 10.88C23.97 10.97 23.98 11.06 23.98 11.15L23.98 19.64Z" fill="#2E7EE0" fill-opacity="1.000000" fill-rule="nonzero"/>
	</g>
</svg>
