<svg width="50.000000" height="51.000000" viewBox="0 0 50 51" fill="none" xmlns="http://www.w3.org/2000/svg" xmlns:xlink="http://www.w3.org/1999/xlink">
	<desc>
			Created with Pixso.
	</desc>
	<defs/>
	<rect id="Frame 8" width="48.000000" height="48.000000" transform="translate(1.000000 1.000000)" fill="#FFFFFF" fill-opacity="0"/>
	<path id="Vector" d="M37.24 13.67L12.75 13.67C11.23 13.67 10 14.9 10 16.42L10 33.57C10 35.09 11.23 36.32 12.75 36.32L37.24 36.32C38.76 36.32 40 35.09 40 33.57L40 16.42C40 14.9 38.76 13.67 37.24 13.67ZM22.63 17.98L28.8 21.54C29.41 21.89 29.41 22.78 28.8 23.13L22.63 26.69C22.03 27.04 21.26 26.6 21.26 25.89L21.26 18.77C21.26 18.07 22.02 17.62 22.63 17.98ZM34.18 32.02L19.52 32.02L19.52 32.13C19.52 32.64 19.11 33.05 18.6 33.05C18.09 33.05 17.68 32.64 17.68 32.13L17.68 32.02L15.81 32.02C15.3 32.02 14.89 31.61 14.89 31.11C14.89 30.6 15.3 30.19 15.81 30.19L17.68 30.19L17.68 30.08C17.68 29.57 18.09 29.16 18.6 29.16C19.11 29.16 19.52 29.57 19.52 30.08L19.52 30.19L34.18 30.19C34.69 30.19 35.1 30.6 35.1 31.11C35.1 31.61 34.69 32.02 34.18 32.02Z" fill="#2E7EE0" fill-opacity="1.000000" fill-rule="nonzero"/>
	<path id="Vector" d="M5.03 38.35C2.39 34.39 0.99 29.75 1 24.99C0.99 21.84 1.61 18.72 2.81 15.8C4.01 12.89 5.78 10.24 8.01 8.01C10.24 5.78 12.89 4.01 15.8 2.81C18.72 1.61 21.84 0.99 25 1C28.15 0.99 31.27 1.61 34.19 2.81C37.1 4.01 39.75 5.78 41.98 8.01C44.21 10.24 45.98 12.89 47.18 15.8C48.38 18.72 49 21.84 48.99 24.99C49 28.15 48.38 31.27 47.18 34.18C45.98 37.1 44.21 39.75 41.98 41.98C39.75 44.21 37.1 45.97 34.19 47.18C31.27 48.38 28.15 49 25 48.99C21.85 49.01 18.73 48.39 15.82 47.19C11.43 45.37 7.67 42.3 5.03 38.35Z" stroke="#2E7EE0" stroke-opacity="1.000000" stroke-width="2.000000"/>
</svg>
