<svg width="40.000000" height="40.000000" viewBox="0 0 40 40" fill="none" xmlns="http://www.w3.org/2000/svg" xmlns:xlink="http://www.w3.org/1999/xlink">
	<desc>
			Created with Pixso.
	</desc>
	<defs>
		<clipPath id="clip2_178">
			<rect id="Print Design" width="40.000000" height="40.000000" fill="white" fill-opacity="0"/>
		</clipPath>
	</defs>
	<rect id="Print Design" width="40.000000" height="40.000000" fill="#FFFFFF" fill-opacity="0"/>
	<g clip-path="url(#clip2_178)">
		<path id="Vector" d="M26.01 2.08L12.86 2.08C10.74 2.08 9.01 3.8 9.01 5.93L9.01 8.31L29.86 8.31L29.86 5.93C29.86 3.8 28.13 2.08 26.01 2.08Z" fill="#FFFFFF" fill-opacity="1.000000" fill-rule="nonzero"/>
		<path id="Vector" d="M35.56 10.71L4.43 10.71C1.99 10.71 0 12.71 0 15.15L0 25.96C0 28.4 1.99 30.4 4.43 30.4L6.61 30.4L6.61 21.76C6.61 19.77 8.23 18.16 10.21 18.16L28.66 18.16C30.64 18.16 32.26 19.77 32.26 21.76L32.26 30.4L35.56 30.4C38 30.4 40 28.4 40 25.96L40 15.15C39.99 12.71 38 10.71 35.56 10.71ZM33.44 16.04L29.2 16.04C28.54 16.04 28 15.5 28 14.84C28 14.17 28.54 13.64 29.2 13.64L33.44 13.64C34.1 13.64 34.64 14.17 34.64 14.84C34.64 15.5 34.1 16.04 33.44 16.04Z" fill="#FFFFFF" fill-opacity="1.000000" fill-rule="nonzero"/>
		<path id="Vector" d="M21.81 29.8C21.09 29.84 20.13 30.24 19.59 30.7C19.1 31.12 18.38 31.19 17.89 30.7C17.75 30.55 17.6 30.42 17.44 30.28C17.42 30.26 17.4 30.25 17.39 30.24C17.38 30.23 17.37 30.23 17.34 30.21C17.26 30.15 17.17 30.09 17.09 30.03C16.93 29.93 16.77 29.84 16.6 29.76C16.58 29.75 16.44 29.68 16.44 29.68C16.38 29.66 16.32 29.63 16.26 29.61C15.88 29.48 15.57 29.4 15.25 29.36C15.25 30.09 15.25 30.82 15.25 31.55C15.3 31.55 15.34 31.55 15.39 31.55C18.2 31.55 21.01 31.55 23.83 31.55C23.83 31.09 23.83 30.63 23.83 30.16C23.2 29.86 22.57 29.75 21.81 29.8Z" fill="#FFFFFF" fill-opacity="1.000000" fill-rule="nonzero"/>
		<path id="Vector" d="M28.66 20.56L10.21 20.56C9.55 20.56 9.01 21.09 9.01 21.76L9.01 36.71C9.01 37.38 9.55 37.91 10.21 37.91L28.66 37.91C29.32 37.91 29.86 37.38 29.86 36.71L29.86 21.76C29.86 21.09 29.32 20.56 28.66 20.56ZM17.46 23.73C18.13 23.73 18.63 24.28 18.66 24.93C18.69 25.58 18.09 26.13 17.46 26.13C16.79 26.13 16.29 25.58 16.26 24.93C16.23 24.28 16.83 23.73 17.46 23.73ZM26.23 32.75C26.23 33.41 25.67 33.95 25.03 33.95C24.58 33.95 24.13 33.95 23.68 33.95C20.47 33.95 17.26 33.95 14.05 33.95C13.4 33.95 12.85 33.4 12.85 32.75C12.85 31.22 12.85 29.69 12.85 28.16C12.85 27.46 13.4 27.03 14.05 26.96C15.76 26.79 17.47 27.31 18.83 28.34C20.91 27.11 23.53 27.05 25.63 28.43C25.63 28.43 25.64 28.43 25.64 28.43C25.99 28.65 26.23 29.05 26.23 29.46C26.23 30.56 26.23 31.66 26.23 32.75Z" fill="#FFFFFF" fill-opacity="1.000000" fill-rule="nonzero"/>
	</g>
</svg>
