<svg width="32.000000" height="32.000000" viewBox="0 0 32 32" fill="none" xmlns="http://www.w3.org/2000/svg" xmlns:xlink="http://www.w3.org/1999/xlink">
	<desc>
			Created with Pixso.
	</desc>
	<defs/>
	<rect id="Ps" width="32.000000" height="32.000000" fill="#FFFFFF" fill-opacity="0"/>
	<path id="Vector" d="M29.85 10.27C30.99 13.01 31.29 16.02 30.7 18.93C30.12 21.83 28.69 24.5 26.59 26.59C25.2 27.98 23.55 29.09 21.73 29.85C19.91 30.61 17.96 31 15.99 31C14.03 31 12.08 30.61 10.26 29.85C8.44 29.09 6.79 27.98 5.4 26.59C4.01 25.2 2.9 23.55 2.14 21.73C1.38 19.91 1 17.97 1 16C1 14.03 1.38 12.08 2.14 10.26C2.9 8.44 4.01 6.79 5.4 5.4C6.79 4.01 8.44 2.9 10.26 2.14C12.08 1.38 14.03 1 15.99 1C17.96 1 19.91 1.38 21.73 2.14C23.55 2.9 25.2 4.01 26.59 5.4C27.99 6.79 29.1 8.45 29.85 10.27ZM23.5 18.78C23.5 18.12 23.3 17.6 22.91 17.24C22.51 16.88 21.79 16.57 20.75 16.32C19.75 16.06 19.17 15.87 19 15.72C18.94 15.68 18.89 15.63 18.86 15.56C18.83 15.5 18.81 15.43 18.81 15.36C18.81 15.28 18.82 15.19 18.86 15.12C18.9 15.04 18.96 14.98 19.03 14.93C19.24 14.77 19.59 14.69 20.09 14.69C20.42 14.67 20.75 14.76 21.03 14.95C21.25 15.12 21.4 15.37 21.45 15.65L23.26 15.28C23.07 14.59 22.74 14.07 22.26 13.73C21.79 13.37 21.06 13.2 20.06 13.2C19.03 13.2 18.26 13.43 17.77 13.91C17.53 14.12 17.35 14.39 17.22 14.68C17.1 14.97 17.04 15.29 17.04 15.61C17.04 16.36 17.33 16.95 17.89 17.36C18.31 17.68 19.29 18.02 20.83 18.4C21.06 18.44 21.27 18.54 21.45 18.67C21.53 18.78 21.58 18.92 21.57 19.06C21.58 19.16 21.56 19.27 21.52 19.36C21.48 19.45 21.42 19.54 21.35 19.61C21.09 19.81 20.73 19.91 20.24 19.91C19.78 19.91 19.42 19.8 19.18 19.59C18.92 19.35 18.75 19.02 18.7 18.67L16.76 18.99C16.91 19.69 17.32 20.32 17.89 20.76C18.47 21.2 19.24 21.43 20.21 21.43C21.29 21.43 22.11 21.17 22.66 20.65C22.93 20.42 23.14 20.13 23.28 19.81C23.42 19.49 23.5 19.14 23.5 18.78ZM16.12 13.72C16.12 12.87 15.92 12.16 15.53 11.62C15.19 11.11 14.69 10.73 14.11 10.56C13.74 10.46 12.95 10.41 11.71 10.41L8.51 10.41L8.51 21.24L10.51 21.24L10.51 17.15L11.83 17.15C12.52 17.17 13.21 17.12 13.89 17C14.27 16.9 14.63 16.73 14.95 16.5C15.32 16.21 15.61 15.83 15.8 15.41C16.03 14.87 16.13 14.3 16.12 13.72Z" fill="#2B2D30" fill-opacity="1.000000" fill-rule="nonzero"/>
	<path id="Vector" d="M22.91 17.24C23.3 17.6 23.5 18.12 23.5 18.78C23.5 19.14 23.42 19.48 23.28 19.81C23.14 20.13 22.93 20.41 22.66 20.65C22.11 21.16 21.29 21.42 20.21 21.42C19.24 21.42 18.47 21.19 17.89 20.75C17.31 20.31 16.91 19.68 16.76 18.98L18.7 18.66C18.75 19.01 18.92 19.34 19.18 19.58C19.42 19.79 19.78 19.9 20.24 19.9C20.73 19.9 21.09 19.8 21.35 19.6C21.42 19.53 21.48 19.44 21.52 19.35C21.56 19.26 21.58 19.15 21.57 19.05C21.58 18.91 21.53 18.77 21.45 18.66C21.27 18.53 21.05 18.43 20.83 18.39C19.29 18.01 18.31 17.66 17.89 17.36C17.33 16.94 17.04 16.35 17.04 15.6C17.04 15.28 17.1 14.96 17.22 14.67C17.35 14.38 17.53 14.11 17.77 13.9C18.26 13.42 19.03 13.19 20.06 13.19C21.06 13.19 21.79 13.36 22.25 13.72C22.74 14.06 23.07 14.58 23.25 15.28L21.45 15.64C21.4 15.36 21.24 15.12 21.02 14.94C20.75 14.76 20.42 14.66 20.09 14.69C19.59 14.69 19.24 14.77 19.02 14.93C18.95 14.97 18.9 15.04 18.86 15.11C18.82 15.19 18.81 15.27 18.81 15.35C18.81 15.42 18.83 15.49 18.86 15.56C18.89 15.62 18.94 15.67 18.99 15.72C19.17 15.86 19.75 16.06 20.75 16.31C21.78 16.56 22.5 16.87 22.91 17.24Z" fill="#2E7EE0" fill-opacity="1.000000" fill-rule="nonzero"/>
	<path id="Vector" d="M15.53 11.62C15.92 12.16 16.12 12.87 16.12 13.72C16.13 14.3 16.03 14.87 15.8 15.41C15.61 15.83 15.32 16.21 14.95 16.5C14.63 16.73 14.27 16.9 13.89 17C13.21 17.12 12.52 17.17 11.83 17.15L10.51 17.15L10.51 21.24L8.51 21.24L8.51 10.41L11.71 10.41C12.94 10.41 13.73 10.46 14.1 10.56C14.69 10.73 15.19 11.11 15.53 11.62ZM13.83 14.6C13.99 14.34 14.07 14.04 14.07 13.74C14.07 13.4 13.96 13.08 13.74 12.82C13.53 12.56 13.23 12.38 12.9 12.32C12.67 12.26 12.2 12.23 11.48 12.23L10.51 12.23L10.51 15.31L11.6 15.31C12.4 15.31 12.93 15.26 13.19 15.16C13.45 15.03 13.67 14.84 13.83 14.6L13.83 14.6Z" fill="#2E7EE0" fill-opacity="1.000000" fill-rule="nonzero"/>
	<path id="Vector" d="M14.07 13.74C14.08 14.04 13.99 14.34 13.83 14.6C13.67 14.84 13.45 15.02 13.19 15.15C12.93 15.25 12.4 15.3 11.6 15.3L10.51 15.3L10.51 12.22L11.48 12.22C12.2 12.22 12.67 12.25 12.9 12.32C13.23 12.38 13.53 12.55 13.74 12.81C13.95 13.07 14.07 13.4 14.06 13.73L14.07 13.74Z" fill="#2B2D30" fill-opacity="1.000000" fill-rule="nonzero"/>
	<path id="Vector" d="M3.53 24.33C1.88 21.87 1.01 18.96 1.01 16C1.01 14.03 1.39 12.08 2.14 10.26C2.9 8.44 4 6.78 5.39 5.39C6.78 4 8.44 2.9 10.26 2.14C12.08 1.39 14.03 1.01 16 1.01C17.96 1.01 19.92 1.39 21.73 2.15C23.55 2.9 25.21 4 26.6 5.39C27.99 6.79 29.1 8.44 29.85 10.26C30.6 12.08 30.99 14.03 30.98 16C30.99 17.96 30.6 19.92 29.85 21.73C29.1 23.55 27.99 25.21 26.6 26.6C25.21 27.99 23.55 29.1 21.74 29.85C19.92 30.6 17.97 30.98 16 30.98C14.03 30.99 12.08 30.6 10.27 29.85C7.53 28.72 5.18 26.8 3.53 24.33Z" stroke="#2E7EE0" stroke-opacity="1.000000" stroke-width="2.000000"/>
</svg>
