<svg width="50.000000" height="51.000000" viewBox="0 0 50 51" fill="none" xmlns="http://www.w3.org/2000/svg" xmlns:xlink="http://www.w3.org/1999/xlink">
	<desc>
			Created with Pixso.
	</desc>
	<defs/>
	<rect id="Frame 9" width="48.000000" height="48.000000" transform="translate(1.000000 1.000000)" fill="#FFFFFF" fill-opacity="0"/>
	<path id="Vector" d="M15.51 31.18L10.68 36.01C9.77 36.92 9.77 38.4 10.68 39.31C11.59 40.22 13.07 40.22 13.98 39.31L18.81 34.48C17.56 33.54 16.45 32.43 15.51 31.18Z" fill="#2E7EE0" fill-opacity="1.000000" fill-rule="nonzero"/>
	<path id="Vector" d="M18.02 28.67L16.76 29.93C17.68 31.19 18.8 32.31 20.06 33.23L21.32 31.97C20.04 31.07 18.92 29.95 18.02 28.67Z" fill="#2E7EE0" fill-opacity="1.000000" fill-rule="nonzero"/>
	<path id="Vector" d="M26.8 18.62C27.16 19.37 27.85 19.99 28.73 20.33C29.61 19.99 30.3 19.37 30.66 18.62L26.8 18.62Z" fill="#2E7EE0" fill-opacity="1.000000" fill-rule="nonzero"/>
	<path id="Vector" d="M30.66 23.9C30.3 23.15 29.61 22.53 28.73 22.19C27.85 22.53 27.16 23.15 26.8 23.9L30.66 23.9Z" fill="#2E7EE0" fill-opacity="1.000000" fill-rule="nonzero"/>
	<path id="Vector" d="M24.74 26.02L24.74 25.14C24.74 23.61 25.53 22.19 26.8 21.26C25.53 20.33 24.74 18.91 24.74 17.38L24.74 16.5C23.38 17.64 22.52 19.35 22.52 21.26C22.52 23.17 23.38 24.88 24.74 26.02Z" fill="#2E7EE0" fill-opacity="1.000000" fill-rule="nonzero"/>
	<path id="Vector" d="M30.96 25.66L26.5 25.66L26.5 27.06C27.19 27.32 27.94 27.47 28.73 27.47C29.51 27.47 30.27 27.32 30.96 27.06L30.96 25.66L30.96 25.66Z" fill="#2E7EE0" fill-opacity="1.000000" fill-rule="nonzero"/>
	<path id="Vector" d="M17.46 21.26C17.46 27.47 22.52 32.53 28.73 32.53C34.94 32.53 40 27.47 40 21.26C40 15.05 34.94 10 28.73 10C22.52 10 17.46 15.05 17.46 21.26ZM28.73 13.29C33.12 13.29 36.7 16.87 36.7 21.26C36.7 25.65 33.12 29.23 28.73 29.23C24.34 29.23 20.76 25.65 20.76 21.26C20.76 16.87 24.34 13.29 28.73 13.29Z" fill="#2E7EE0" fill-opacity="1.000000" fill-rule="nonzero"/>
	<path id="Vector" d="M26.5 16.87L30.96 16.87L30.96 15.46C30.27 15.2 29.51 15.05 28.73 15.05C27.94 15.05 27.19 15.2 26.5 15.46L26.5 16.87L26.5 16.87Z" fill="#2E7EE0" fill-opacity="1.000000" fill-rule="nonzero"/>
	<path id="Vector" d="M32.72 17.38C32.72 18.91 31.93 20.33 30.66 21.26C31.93 22.19 32.72 23.61 32.72 25.14L32.72 26.02C34.07 24.88 34.94 23.17 34.94 21.26C34.94 19.35 34.07 17.64 32.72 16.5L32.72 17.38Z" fill="#2E7EE0" fill-opacity="1.000000" fill-rule="nonzero"/>
	<path id="Vector" d="M5.03 38.35C2.39 34.39 0.99 29.75 1 24.99C0.99 21.84 1.61 18.72 2.81 15.8C4.01 12.89 5.78 10.24 8.01 8.01C10.24 5.78 12.89 4.01 15.8 2.81C18.72 1.61 21.84 0.99 25 1C28.15 0.99 31.27 1.61 34.19 2.81C37.1 4.01 39.75 5.78 41.98 8.01C44.21 10.24 45.98 12.89 47.18 15.8C48.38 18.72 49 21.84 48.99 24.99C49 28.15 48.38 31.27 47.18 34.18C45.98 37.1 44.21 39.75 41.98 41.98C39.75 44.21 37.1 45.97 34.19 47.18C31.27 48.38 28.15 49 25 48.99C21.85 49.01 18.73 48.39 15.82 47.19C11.43 45.37 7.67 42.3 5.03 38.35Z" stroke="#2E7EE0" stroke-opacity="1.000000" stroke-width="2.000000"/>
</svg>
