<svg width="50.000000" height="51.000000" viewBox="0 0 50 51" fill="none" xmlns="http://www.w3.org/2000/svg" xmlns:xlink="http://www.w3.org/1999/xlink">
	<desc>
			Created with Pixso.
	</desc>
	<defs/>
	<rect id="Frame 4" width="48.000000" height="48.000000" transform="translate(1.000000 1.000000)" fill="#FFFFFF" fill-opacity="0"/>
	<path id="Shape" d="M39.19 33.36C38.38 33.62 37.62 34 36.93 34.5C36.29 34.93 35.26 35.38 34.7 34.88C33.89 34.15 35.48 32.35 35.48 30.48C35.47 29.02 34.45 27.96 32.67 27.57C32.19 27.47 31.75 27.25 31.39 26.92C31.62 26.31 31.66 25.65 31.53 25.02C32.39 24.12 33.8 24.08 35.26 22.48C39.13 24.6 40.81 29.26 39.19 33.36ZM30.84 21.38C32.02 21.35 33.18 21.57 34.27 22.01C33.07 23.17 32.12 23.21 31.2 23.92L30.47 21.75L30.84 21.38ZM29.64 19.01C29.99 18.66 30.06 18.54 30.26 18.54C30.44 18.53 30.46 18.6 31.08 19.22C31.21 19.37 31.19 19.59 31.05 19.71L30.11 20.65L29.58 19.05C29.6 19.04 29.62 19.03 29.64 19.01ZM22.84 11.51C22.91 11.44 23.01 11.39 23.11 11.39C23.19 11.39 23.27 11.42 23.33 11.48L23.93 12.07C24.05 12.22 24.04 12.44 23.9 12.56L23.76 12.7L22.1 12.25L22.84 11.51ZM19 16.75C18.98 16.76 18.96 16.76 18.94 16.76C18.86 16.79 18.77 16.76 18.7 16.7C18.64 16.64 18.62 16.55 18.64 16.46C18.65 16.44 18.65 16.42 18.65 16.4C18.7 16.2 18.77 16.01 18.86 15.82L19.94 16.36C19.65 16.54 19.33 16.67 19 16.75ZM25.12 19.68C23.36 21.44 22.07 22.28 19.76 23.93C19.44 24.15 19.3 24.55 19.4 24.92L19.85 26.74L19.53 27.06L15.5 23.03L15.82 22.71L17.64 23.16C18.01 23.26 18.41 23.11 18.63 22.8C20.27 20.5 21.13 19.18 22.88 17.44C22.99 17.32 23.05 17.15 23.02 16.99C22.99 16.82 22.89 16.68 22.74 16.61L15.04 12.76C15.66 12.09 16.59 11.82 17.47 12.06L25.5 14.25C25.77 14.32 26.06 14.25 26.26 14.05L28.53 11.78C30.41 9.9 31.91 9.92 32.51 10.04C32.59 10.45 32.67 11.93 30.76 14.04C29.78 15.13 28.53 16.4 28.17 16.76C27.96 16.97 27.89 17.28 27.98 17.55L30.5 25.09C30.73 25.96 30.47 26.9 29.8 27.52L25.95 19.82C25.87 19.67 25.73 19.56 25.57 19.54C25.4 19.51 25.24 19.56 25.12 19.68ZM26.19 22.61L26.73 23.7C26.53 23.8 26.31 23.87 26.09 23.92C26.01 23.94 25.91 23.92 25.85 23.85C25.79 23.79 25.77 23.7 25.79 23.61C25.87 23.26 26 22.92 26.19 22.62L26.19 22.61ZM22.5 28C22.84 28.63 23.4 29.13 24.06 29.41C25.2 29.88 26.69 29.71 26.61 30.66C26.54 31.19 26.39 31.71 26.17 32.2C25.55 33.78 25.58 34.22 25.77 35.3C25.93 35.92 25.92 36.58 25.74 37.2C22.89 35.08 21.6 31.44 22.5 28ZM29.72 38.86C30.86 38.1 32.08 37.72 34.22 37.87C34.49 37.89 34.77 37.93 35.04 37.98C33.4 38.83 31.54 39.14 29.72 38.86ZM36.27 37.21C34.64 36.73 32.93 36.67 31.27 37.04C30.21 37.32 29.23 37.84 28.41 38.56C27.8 38.37 27.21 38.12 26.66 37.8C26.95 36.94 27 36.01 26.79 35.13C26.63 34.23 26.59 33.96 27.13 32.58C27.39 32 27.56 31.38 27.64 30.75C27.72 30.01 27.3 29.32 26.61 29.05C25.84 28.72 25.09 28.72 24.46 28.46C23.7 28.08 23.16 27.35 23.02 26.51C23.38 25.7 23.87 24.96 24.46 24.3C24.56 24.19 24.68 24.08 24.79 23.97C24.84 24.2 24.96 24.41 25.12 24.58C25.7 25.17 26.47 24.97 27.2 24.63L28.93 28.1C29.07 28.37 29.32 28.56 29.62 28.6C29.92 28.65 30.22 28.56 30.44 28.34C30.6 28.19 30.74 28.03 30.88 27.86C31.34 28.21 31.88 28.46 32.45 28.58C33.35 28.78 34.44 29.27 34.44 30.48C34.44 31.81 33.47 32.98 33.44 34.27C33.41 35.53 34.47 36.27 35.68 36.11C36.92 35.95 37.62 35.2 38.52 34.74C37.94 35.7 37.17 36.54 36.27 37.21Z" fill="#2E7EE0" fill-opacity="1.000000" fill-rule="nonzero"/>
	<path id="Shape" d="M16.74 37.97C13.63 36.57 11.77 34.46 11.21 31.71C10.38 27.67 12.62 23.01 15.05 20.39C15.24 20.18 15.22 19.85 15.01 19.66C14.81 19.47 14.48 19.48 14.29 19.68C11.6 22.59 9.29 27.49 10.19 31.91C10.82 35.02 12.88 37.37 16.31 38.91C16.57 39.03 16.88 38.92 17 38.66C17.11 38.4 17 38.09 16.74 37.97Z" fill="#2E7EE0" fill-opacity="1.000000" fill-rule="nonzero"/>
	<path id="Shape" d="M14.71 31.06C14.54 29.74 14.96 28.41 15.86 27.43C16.05 27.23 16.05 26.9 15.85 26.7C15.65 26.51 15.33 26.5 15.12 26.7C14.01 27.9 13.48 29.53 13.68 31.16C13.91 33.52 15.37 35.71 17.79 37.32C18.03 37.48 18.35 37.42 18.51 37.18C18.67 36.94 18.6 36.62 18.36 36.46C16.21 35.03 14.91 33.11 14.71 31.06Z" fill="#2E7EE0" fill-opacity="1.000000" fill-rule="nonzero"/>
	<path id="Shape" d="M18.46 32.04C18.32 31.33 18.51 30.59 18.96 30.02C19.16 29.81 19.15 29.49 18.95 29.29C18.75 29.09 18.43 29.09 18.23 29.28C16.93 30.59 17.03 33.47 19.26 35.71C19.47 35.9 19.79 35.9 19.99 35.7C20.19 35.5 20.19 35.18 19.99 34.97C19.17 34.19 18.64 33.16 18.46 32.04Z" fill="#2E7EE0" fill-opacity="1.000000" fill-rule="nonzero"/>
	<path id="Oval" d="M16.53 18.79C16.53 19.07 16.29 19.31 16.01 19.31C15.72 19.31 15.49 19.07 15.49 18.79C15.49 18.5 15.72 18.27 16.01 18.27C16.29 18.27 16.53 18.5 16.53 18.79Z" fill="#2E7EE0" fill-opacity="1.000000" fill-rule="evenodd"/>
	<path id="Vector" d="M5.03 38.35C2.39 34.39 0.99 29.75 1 24.99C0.99 21.84 1.61 18.72 2.81 15.8C4.01 12.89 5.78 10.24 8.01 8.01C10.24 5.78 12.89 4.01 15.8 2.81C18.72 1.61 21.84 0.99 25 1C28.15 0.99 31.27 1.61 34.19 2.81C37.1 4.01 39.75 5.78 41.98 8.01C44.21 10.24 45.98 12.89 47.18 15.8C48.38 18.72 49 21.84 48.99 24.99C49 28.15 48.38 31.27 47.18 34.18C45.98 37.1 44.21 39.75 41.98 41.98C39.75 44.21 37.1 45.97 34.19 47.18C31.27 48.38 28.15 49 25 48.99C21.85 49.01 18.73 48.39 15.82 47.19C11.43 45.37 7.67 42.3 5.03 38.35Z" stroke="#2E7EE0" stroke-opacity="1.000000" stroke-width="2.000000"/>
</svg>
