<svg width="25.000000" height="25.000000" viewBox="0 0 25 25" fill="none" xmlns="http://www.w3.org/2000/svg" xmlns:xlink="http://www.w3.org/1999/xlink">
	<desc>
			Created with Pixso.
	</desc>
	<defs>
		<clipPath id="clip2_50">
			<rect id="twitter" width="25.000000" height="25.000000" fill="white" fill-opacity="0"/>
		</clipPath>
	</defs>
	<rect id="twitter" width="25.000000" height="25.000000" fill="#FFFFFF" fill-opacity="0"/>
	<g clip-path="url(#clip2_50)">
		<path id="Vector" d="M12.5 0C5.59 0 0 5.59 0 12.5C0 19.4 5.59 25 12.5 25C19.4 25 25 19.4 25 12.5C25 5.59 19.4 0 12.5 0ZM18.2 9.74C18.21 9.86 18.21 9.99 18.21 10.11C18.21 13.9 15.32 18.28 10.05 18.28L10.05 18.28L10.05 18.28C8.43 18.28 6.92 17.8 5.65 16.99C5.87 17.01 6.1 17.03 6.33 17.03C7.68 17.03 8.92 16.57 9.9 15.8C8.64 15.77 7.58 14.95 7.22 13.81C7.39 13.84 7.57 13.86 7.76 13.86C8.02 13.86 8.27 13.82 8.51 13.76C7.2 13.49 6.21 12.33 6.21 10.94C6.21 10.93 6.21 10.92 6.21 10.91C6.6 11.12 7.04 11.25 7.51 11.27C6.74 10.75 6.23 9.87 6.23 8.88C6.23 8.35 6.38 7.86 6.62 7.44C8.04 9.17 10.15 10.31 12.54 10.43C12.49 10.22 12.46 10 12.46 9.78C12.46 8.2 13.75 6.91 15.33 6.91C16.16 6.91 16.9 7.26 17.43 7.82C18.08 7.69 18.69 7.45 19.25 7.12C19.03 7.79 18.58 8.35 17.99 8.71C18.57 8.64 19.12 8.48 19.63 8.26C19.25 8.83 18.76 9.34 18.2 9.74Z" fill="#2E7EE0" fill-opacity="1.000000" fill-rule="nonzero"/>
	</g>
</svg>
