<svg width="40.000000" height="40.000000" viewBox="0 0 40 40" fill="none" xmlns="http://www.w3.org/2000/svg" xmlns:xlink="http://www.w3.org/1999/xlink">
	<desc>
			Created with Pixso.
	</desc>
	<defs>
		<clipPath id="clip2_191">
			<rect id="typography-1 1" width="40.000000" height="40.000000" fill="white" fill-opacity="0"/>
		</clipPath>
	</defs>
	<rect id="typography-1 1" width="40.000000" height="40.000000" fill="#FFFFFF" fill-opacity="0"/>
	<g clip-path="url(#clip2_191)">
		<path id="Vector" d="M18.79 13.69L18.79 29.88L21.2 29.88L21.2 13.69C21.2 13.05 21.72 12.52 22.37 12.52L29.09 12.52L29.09 10.11L10.9 10.11L10.9 12.52L17.62 12.52C18.27 12.52 18.79 13.05 18.79 13.69Z" fill="#FFFFFF" fill-opacity="1.000000" fill-rule="nonzero"/>
		<path id="Vector" d="M36.13 0L3.86 0C1.73 0 0 1.73 0 3.86L0 36.13C0 38.26 1.73 40 3.86 40L36.13 40C38.26 40 40 38.26 40 36.13L40 3.86C40 1.73 38.26 0 36.13 0L36.13 0ZM9.73 14.87C9.09 14.87 8.56 14.34 8.56 13.69L8.56 8.94C8.56 8.29 9.09 7.77 9.73 7.77L30.26 7.77C30.9 7.77 31.43 8.29 31.43 8.94L31.43 13.69C31.43 14.34 30.9 14.87 30.26 14.87L23.54 14.87L23.54 31.05C23.54 31.7 23.02 32.22 22.37 32.22L17.62 32.22C16.97 32.22 16.45 31.7 16.45 31.05L16.45 14.87L9.73 14.87Z" fill="#FFFFFF" fill-opacity="1.000000" fill-rule="nonzero"/>
	</g>
</svg>
