<svg width="30.000000" height="30.000000" viewBox="0 0 30 30" fill="none" xmlns="http://www.w3.org/2000/svg" xmlns:xlink="http://www.w3.org/1999/xlink">
	<desc>
			Created with Pixso.
	</desc>
	<defs>
		<clipPath id="clip2_85">
			<rect id="web" width="30.000000" height="30.000000" fill="white" fill-opacity="0"/>
		</clipPath>
	</defs>
	<rect id="web" width="30.000000" height="30.000000" fill="#FFFFFF" fill-opacity="0"/>
	<g clip-path="url(#clip2_85)">
		<path id="Vector" d="M15.53 29.98C17.83 29.65 19.84 27.26 21.1 23.72C19.27 23.31 17.41 23.09 15.53 23.07L15.53 29.98Z" fill="#2E7EE0" fill-opacity="1.000000" fill-rule="nonzero"/>
		<path id="Vector" d="M19.2 29.42C19.33 29.38 19.47 29.34 19.6 29.29C19.71 29.26 19.83 29.22 19.94 29.18C20.07 29.13 20.2 29.09 20.33 29.04C20.44 28.99 20.55 28.95 20.66 28.9C20.79 28.85 20.92 28.8 21.05 28.74C21.16 28.69 21.27 28.64 21.37 28.59C21.5 28.53 21.62 28.47 21.74 28.41C21.85 28.36 21.96 28.3 22.07 28.25C22.19 28.18 22.31 28.11 22.42 28.05C22.53 27.99 22.63 27.93 22.74 27.86C22.86 27.79 22.97 27.72 23.09 27.65C23.19 27.58 23.29 27.52 23.39 27.45C23.51 27.37 23.62 27.29 23.73 27.21C23.83 27.14 23.93 27.07 24.02 27C24.13 26.92 24.24 26.83 24.35 26.74C24.45 26.67 24.54 26.59 24.63 26.51C24.74 26.43 24.84 26.33 24.95 26.24C25.04 26.16 25.13 26.08 25.22 26C25.32 25.9 25.42 25.8 25.52 25.7C25.61 25.62 25.7 25.53 25.78 25.45C25.8 25.43 25.81 25.41 25.83 25.4C24.66 24.79 23.43 24.32 22.15 23.98C21.49 26.09 20.31 28.01 18.73 29.55C18.77 29.54 18.81 29.53 18.86 29.52C18.97 29.48 19.08 29.45 19.2 29.42Z" fill="#2E7EE0" fill-opacity="1.000000" fill-rule="nonzero"/>
		<path id="Vector" d="M30 15.54L23.57 15.54C23.54 18.05 23.18 20.55 22.48 22.96C23.9 23.34 25.27 23.88 26.55 24.58C28.67 22.03 29.88 18.85 30 15.54Z" fill="#2E7EE0" fill-opacity="1.000000" fill-rule="nonzero"/>
		<path id="Vector" d="M15.53 14.47L22.49 14.47C22.47 12.05 22.11 9.64 21.44 7.32C19.5 7.76 17.52 8 15.53 8.02L15.53 14.47Z" fill="#2E7EE0" fill-opacity="1.000000" fill-rule="nonzero"/>
		<path id="Vector" d="M15.53 0.04L15.53 6.95C17.41 6.92 19.27 6.7 21.1 6.29C19.84 2.76 17.83 0.36 15.53 0.04Z" fill="#2E7EE0" fill-opacity="1.000000" fill-rule="nonzero"/>
		<path id="Vector" d="M15.53 21.99C17.52 22.02 19.5 22.26 21.44 22.7C22.11 20.37 22.47 17.96 22.49 15.54L15.53 15.54L15.53 21.99Z" fill="#2E7EE0" fill-opacity="1.000000" fill-rule="nonzero"/>
		<path id="Vector" d="M26.55 5.43C25.27 6.13 23.9 6.68 22.48 7.05C23.18 9.47 23.54 11.96 23.57 14.47L30 14.47C29.88 11.16 28.67 7.98 26.55 5.43Z" fill="#2E7EE0" fill-opacity="1.000000" fill-rule="nonzero"/>
		<path id="Vector" d="M25.83 4.62C25.81 4.6 25.8 4.59 25.78 4.57C25.7 4.48 25.61 4.4 25.52 4.31C25.42 4.22 25.32 4.12 25.22 4.02C25.13 3.94 25.04 3.86 24.95 3.78C24.85 3.69 24.74 3.59 24.64 3.5C24.54 3.43 24.45 3.35 24.35 3.28C24.25 3.19 24.14 3.1 24.03 3.02C23.93 2.95 23.83 2.88 23.73 2.81C23.62 2.72 23.51 2.64 23.39 2.57C23.29 2.5 23.19 2.43 23.09 2.37C22.97 2.29 22.86 2.22 22.74 2.15C22.64 2.09 22.53 2.03 22.43 1.97C22.31 1.9 22.19 1.83 22.07 1.77C21.96 1.71 21.85 1.66 21.74 1.6C21.62 1.54 21.5 1.48 21.37 1.42C21.26 1.37 21.15 1.32 21.04 1.27C20.92 1.22 20.79 1.16 20.66 1.11C20.55 1.07 20.44 1.02 20.33 0.98C20.2 0.93 20.06 0.88 19.93 0.84C19.82 0.8 19.71 0.76 19.6 0.72C19.46 0.68 19.33 0.64 19.19 0.6C19.08 0.57 18.97 0.53 18.85 0.5C18.81 0.49 18.77 0.48 18.72 0.47C20.31 2.01 21.49 3.93 22.15 6.04C23.42 5.7 24.66 5.23 25.83 4.62Z" fill="#2E7EE0" fill-opacity="1.000000" fill-rule="nonzero"/>
		<path id="Vector" d="M0 14.47L6.42 14.47C6.45 11.96 6.81 9.47 7.51 7.05C6.09 6.68 4.73 6.13 3.44 5.43C1.32 7.98 0.11 11.16 0 14.47Z" fill="#2E7EE0" fill-opacity="1.000000" fill-rule="nonzero"/>
		<path id="Vector" d="M14.46 29.98L14.46 23.07C12.58 23.09 10.72 23.31 8.89 23.72C10.15 27.26 12.16 29.65 14.46 29.98Z" fill="#2E7EE0" fill-opacity="1.000000" fill-rule="nonzero"/>
		<path id="Vector" d="M14.46 15.54L7.5 15.54C7.52 17.96 7.88 20.37 8.55 22.7C10.49 22.26 12.47 22.02 14.46 21.99L14.46 15.54Z" fill="#2E7EE0" fill-opacity="1.000000" fill-rule="nonzero"/>
		<path id="Vector" d="M14.46 0.04C12.16 0.36 10.15 2.76 8.89 6.29C10.72 6.7 12.58 6.92 14.46 6.95L14.46 0.04Z" fill="#2E7EE0" fill-opacity="1.000000" fill-rule="nonzero"/>
		<path id="Vector" d="M14.46 8.02C12.47 8 10.49 7.76 8.55 7.32C7.88 9.64 7.52 12.05 7.5 14.47L14.46 14.47L14.46 8.02Z" fill="#2E7EE0" fill-opacity="1.000000" fill-rule="nonzero"/>
		<path id="Vector" d="M11.26 0.47C11.22 0.48 11.17 0.49 11.13 0.5C11.02 0.53 10.91 0.57 10.79 0.6C10.66 0.64 10.52 0.68 10.39 0.72C10.28 0.76 10.16 0.8 10.05 0.84C9.92 0.88 9.79 0.93 9.66 0.98C9.55 1.02 9.44 1.07 9.33 1.11C9.2 1.16 9.07 1.22 8.94 1.27C8.83 1.32 8.72 1.37 8.62 1.42C8.49 1.48 8.37 1.54 8.25 1.6C8.14 1.66 8.03 1.71 7.92 1.77C7.8 1.83 7.68 1.9 7.57 1.97C7.46 2.03 7.35 2.09 7.25 2.15C7.13 2.22 7.02 2.29 6.9 2.37C6.8 2.43 6.7 2.5 6.6 2.57C6.48 2.64 6.37 2.72 6.26 2.8C6.16 2.87 6.06 2.94 5.96 3.02C5.86 3.1 5.75 3.19 5.64 3.27C5.54 3.35 5.45 3.42 5.36 3.5C5.25 3.59 5.15 3.68 5.04 3.77C4.95 3.85 4.86 3.93 4.77 4.02C4.67 4.11 4.57 4.21 4.47 4.31C4.38 4.4 4.29 4.48 4.21 4.57C4.19 4.58 4.18 4.6 4.16 4.62C5.33 5.22 6.56 5.7 7.84 6.03C8.5 3.92 9.68 2.01 11.26 0.47Z" fill="#2E7EE0" fill-opacity="1.000000" fill-rule="nonzero"/>
		<path id="Vector" d="M4.47 25.7C4.57 25.8 4.67 25.9 4.77 25.99C4.86 26.08 4.95 26.15 5.04 26.24C5.14 26.33 5.25 26.42 5.35 26.51C5.45 26.59 5.54 26.66 5.64 26.74C5.74 26.83 5.85 26.91 5.96 27C6.06 27.07 6.16 27.14 6.26 27.21C6.37 27.29 6.48 27.37 6.6 27.45C6.7 27.52 6.8 27.58 6.9 27.65C7.02 27.72 7.13 27.79 7.25 27.86C7.35 27.93 7.46 27.99 7.56 28.05C7.68 28.12 7.8 28.18 7.92 28.25C8.03 28.3 8.14 28.36 8.25 28.41C8.37 28.48 8.49 28.54 8.62 28.59C8.73 28.65 8.84 28.69 8.95 28.74C9.07 28.8 9.2 28.85 9.33 28.9C9.44 28.95 9.55 28.99 9.66 29.04C9.79 29.09 9.93 29.13 10.06 29.18C10.17 29.22 10.28 29.26 10.39 29.29C10.53 29.34 10.66 29.38 10.8 29.42C10.91 29.45 11.02 29.48 11.14 29.51C11.18 29.52 11.22 29.53 11.27 29.54C9.68 28 8.5 26.09 7.84 23.98C6.57 24.32 5.33 24.79 4.17 25.39C4.18 25.41 4.2 25.43 4.21 25.44C4.29 25.53 4.38 25.62 4.47 25.7Z" fill="#2E7EE0" fill-opacity="1.000000" fill-rule="nonzero"/>
		<path id="Vector" d="M3.44 24.58C4.73 23.88 6.09 23.34 7.51 22.96C6.81 20.55 6.45 18.05 6.42 15.54L0 15.54C0.11 18.85 1.32 22.03 3.44 24.58Z" fill="#2E7EE0" fill-opacity="1.000000" fill-rule="nonzero"/>
	</g>
</svg>
