<svg width="30.000000" height="30.000000" viewBox="0 0 30 30" fill="none" xmlns="http://www.w3.org/2000/svg" xmlns:xlink="http://www.w3.org/1999/xlink">
	<desc>
			Created with Pixso.
	</desc>
	<defs>
		<clipPath id="clip2_82">
			<rect id="whatsapp" width="30.000000" height="30.000000" fill="white" fill-opacity="0"/>
		</clipPath>
	</defs>
	<rect id="whatsapp" width="30.000000" height="30.000000" fill="#FFFFFF" fill-opacity="0"/>
	<g clip-path="url(#clip2_82)">
		<path id="Vector" d="M15 0C6.71 0 0 6.71 0 15C0 23.28 6.71 30 15 30C23.28 30 30 23.28 30 15C30 6.71 23.28 0 15 0ZM15.31 23.73L15.31 23.73C13.81 23.73 12.33 23.35 11.02 22.64L6.26 23.88L7.53 19.23C6.75 17.87 6.33 16.33 6.34 14.75C6.34 9.8 10.36 5.77 15.31 5.77C17.71 5.77 19.97 6.71 21.66 8.4C23.36 10.1 24.29 12.36 24.29 14.75C24.29 19.7 20.26 23.73 15.31 23.73Z" fill="#2E7EE0" fill-opacity="1.000000" fill-rule="nonzero"/>
		<path id="Vector" d="M15.32 7.29C11.2 7.29 7.85 10.63 7.85 14.75C7.85 16.16 8.24 17.53 8.99 18.72L9.17 19L8.42 21.75L11.24 21.01L11.51 21.17C12.66 21.85 13.97 22.21 15.31 22.21L15.31 22.21C19.43 22.21 22.77 18.87 22.77 14.75C22.78 12.76 22 10.89 20.59 9.48C19.18 8.07 17.31 7.29 15.32 7.29ZM19.7 17.95C19.52 18.48 18.62 18.96 18.19 19.02C17.8 19.08 17.32 19.1 16.78 18.93C16.45 18.83 16.03 18.69 15.5 18.46C13.25 17.49 11.78 15.22 11.67 15.07C11.55 14.92 10.75 13.86 10.75 12.75C10.75 11.65 11.33 11.11 11.54 10.88C11.74 10.66 11.99 10.6 12.13 10.6C12.28 10.6 12.43 10.6 12.56 10.61C12.7 10.62 12.89 10.56 13.07 10.99C13.26 11.44 13.7 12.55 13.76 12.66C13.82 12.77 13.85 12.9 13.78 13.05C13.7 13.2 13.46 13.53 13.22 13.82C13.12 13.94 12.99 14.05 13.12 14.28C13.25 14.5 13.7 15.24 14.37 15.83C15.23 16.59 15.95 16.83 16.17 16.94C16.4 17.06 16.53 17.04 16.66 16.89C16.79 16.74 17.22 16.23 17.37 16.01C17.52 15.78 17.67 15.82 17.87 15.9C18.08 15.97 19.18 16.51 19.41 16.63C19.63 16.74 19.78 16.79 19.84 16.89C19.89 16.98 19.89 17.43 19.7 17.95Z" fill="#2E7EE0" fill-opacity="1.000000" fill-rule="nonzero"/>
	</g>
</svg>
