<svg width="32.000000" height="32.000000" viewBox="0 0 32 32" fill="none" xmlns="http://www.w3.org/2000/svg" xmlns:xlink="http://www.w3.org/1999/xlink">
	<desc>
			Created with Pixso.
	</desc>
	<defs/>
	<rect id="Frame 3" width="32.000000" height="32.000000" fill="#FFFFFF" fill-opacity="0"/>
	<path id="Vector" d="M29.85 10.27C30.99 13.01 31.29 16.02 30.7 18.93C30.12 21.83 28.69 24.5 26.59 26.59C25.2 27.98 23.55 29.09 21.73 29.85C19.91 30.61 17.96 31 15.99 31C14.03 31 12.08 30.61 10.26 29.85C8.44 29.09 6.79 27.98 5.4 26.59C4.01 25.2 2.9 23.55 2.14 21.73C1.38 19.91 1 17.97 1 16C1 14.03 1.38 12.08 2.14 10.26C2.9 8.44 4.01 6.79 5.4 5.4C6.79 4.01 8.44 2.9 10.26 2.14C12.08 1.38 14.03 1 15.99 1C17.96 1 19.91 1.38 21.73 2.14C23.55 2.9 25.2 4.01 26.59 5.4C27.99 6.79 29.1 8.45 29.85 10.27ZM23.48 20.76C23.48 20.74 23.48 20.72 23.48 20.69C23.45 20.31 23.44 19.98 23.44 19.69L23.44 10.39C23.44 10.38 23.44 10.37 23.43 10.35C23.43 10.34 23.42 10.33 23.42 10.32C23.39 10.3 23.36 10.3 23.33 10.3L21.68 10.3C21.67 10.3 21.65 10.3 21.64 10.31C21.63 10.31 21.62 10.32 21.61 10.33C21.59 10.35 21.59 10.38 21.59 10.41L21.59 13.06C21.48 13.05 21.39 13.04 21.32 13.03C21.25 13.03 21.17 13.02 21.06 13.02C19.8 13.02 18.82 13.43 18.09 14.25C17.37 15.07 17.01 16.08 17.01 17.27C17.01 18.65 17.37 19.68 18.08 20.37C18.79 21.05 19.7 21.39 20.81 21.39C21.71 21.38 22.6 21.18 23.42 20.8C23.45 20.79 23.47 20.78 23.47 20.76L23.48 20.76ZM16.42 21.26C16.43 21.22 16.43 21.17 16.41 21.13L13.54 15.61L16.23 10.46C16.27 10.34 16.25 10.29 16.16 10.29L14.53 10.29C14.5 10.29 14.48 10.29 14.46 10.3C14.45 10.3 14.43 10.31 14.41 10.33C14.39 10.35 14.37 10.38 14.36 10.41L14.36 10.42C14.18 10.78 14 11.14 13.83 11.52C13.38 12.49 12.93 13.47 12.49 14.45L12.47 14.45C12.01 13.45 11.54 12.46 11.07 11.48C10.9 11.11 10.73 10.76 10.56 10.41C10.55 10.39 10.55 10.37 10.54 10.35C10.53 10.33 10.52 10.32 10.5 10.31C10.46 10.29 10.42 10.28 10.37 10.28L8.63 10.28C8.61 10.28 8.6 10.29 8.58 10.3C8.56 10.31 8.55 10.32 8.54 10.34C8.53 10.36 8.53 10.38 8.53 10.4C8.53 10.42 8.54 10.44 8.56 10.45L11.25 15.79L8.47 21.15C8.45 21.16 8.44 21.17 8.44 21.19C8.43 21.21 8.43 21.22 8.44 21.24C8.45 21.27 8.47 21.28 8.53 21.28L10.19 21.28C10.23 21.29 10.27 21.28 10.3 21.27C10.34 21.25 10.37 21.22 10.39 21.19C11.06 19.8 11.71 18.4 12.34 17L12.36 17C13.05 18.43 13.71 19.83 14.36 21.18C14.37 21.22 14.39 21.25 14.43 21.28C14.47 21.3 14.52 21.32 14.57 21.32L16.33 21.32C16.38 21.32 16.41 21.3 16.42 21.26L16.42 21.26Z" fill="#2B2D30" fill-opacity="1.000000" fill-rule="nonzero"/>
	<path id="Vector" d="M23.48 20.69C23.48 20.72 23.48 20.74 23.47 20.76C23.47 20.78 23.45 20.79 23.42 20.8C22.6 21.18 21.71 21.38 20.81 21.39C19.7 21.39 18.79 21.05 18.08 20.37C17.37 19.69 17.01 18.65 17.01 17.27C17.01 16.08 17.37 15.07 18.09 14.25C18.82 13.44 19.8 13.03 21.06 13.03C21.17 13.03 21.26 13.03 21.32 13.03C21.39 13.04 21.48 13.05 21.59 13.06L21.59 10.41C21.59 10.38 21.59 10.35 21.61 10.33C21.62 10.32 21.63 10.31 21.64 10.31C21.65 10.3 21.67 10.3 21.68 10.3L23.33 10.3C23.36 10.3 23.39 10.3 23.41 10.32C23.42 10.33 23.43 10.34 23.43 10.35C23.44 10.37 23.44 10.38 23.44 10.39L23.44 19.69C23.44 19.98 23.45 20.31 23.48 20.69ZM21.57 19.69L21.59 14.65C21.4 14.57 21.2 14.54 21 14.54C19.56 14.65 18.84 15.53 18.84 17.18C18.84 18.12 19.04 18.79 19.43 19.2C19.61 19.4 19.83 19.56 20.08 19.66C20.32 19.77 20.59 19.82 20.86 19.81C21.1 19.82 21.34 19.78 21.57 19.69Z" fill="#2E7EE0" fill-opacity="1.000000" fill-rule="nonzero"/>
	<path id="Vector" d="M21.59 14.65L21.57 19.69C21.34 19.78 21.1 19.82 20.86 19.81C20.6 19.82 20.33 19.77 20.08 19.66C19.84 19.56 19.61 19.4 19.43 19.2C19.04 18.79 18.85 18.12 18.85 17.18C18.85 15.53 19.57 14.65 21 14.54C21.2 14.54 21.4 14.57 21.59 14.65Z" fill="#2B2D30" fill-opacity="1.000000" fill-rule="nonzero"/>
	<path id="Vector" d="M16.4 21.13C16.42 21.17 16.43 21.22 16.42 21.26C16.41 21.3 16.38 21.32 16.33 21.32L14.57 21.32C14.52 21.32 14.47 21.3 14.43 21.28C14.4 21.25 14.37 21.22 14.36 21.18C13.71 19.83 13.05 18.43 12.36 17L12.35 17C11.71 18.4 11.06 19.8 10.39 21.19C10.37 21.22 10.34 21.25 10.3 21.27C10.27 21.28 10.23 21.29 10.19 21.28L8.52 21.28C8.47 21.28 8.44 21.27 8.43 21.24C8.43 21.22 8.43 21.21 8.43 21.19C8.44 21.17 8.45 21.16 8.46 21.15L11.25 15.79L8.56 10.45C8.54 10.44 8.53 10.42 8.53 10.4C8.53 10.38 8.53 10.36 8.54 10.34C8.55 10.32 8.56 10.31 8.58 10.3C8.6 10.29 8.61 10.28 8.63 10.28L10.37 10.28C10.42 10.28 10.46 10.29 10.5 10.31C10.52 10.32 10.53 10.33 10.54 10.35C10.55 10.37 10.55 10.39 10.56 10.41C10.73 10.76 10.9 11.11 11.07 11.48C11.54 12.46 12.01 13.45 12.47 14.46L12.49 14.46C12.93 13.48 13.38 12.5 13.84 11.52C14.01 11.14 14.18 10.78 14.37 10.43L14.37 10.41C14.38 10.38 14.39 10.35 14.42 10.33C14.43 10.31 14.45 10.3 14.47 10.3C14.49 10.29 14.51 10.29 14.53 10.29L16.17 10.29C16.26 10.29 16.29 10.35 16.25 10.46L13.54 15.61L16.4 21.13Z" fill="#2E7EE0" fill-opacity="1.000000" fill-rule="nonzero"/>
	<path id="Vector" d="M3.53 24.33C1.88 21.87 1.01 18.96 1.01 16C1.01 14.03 1.39 12.08 2.14 10.26C2.9 8.44 4 6.78 5.39 5.39C6.78 4 8.44 2.9 10.26 2.14C12.08 1.39 14.03 1.01 16 1.01C17.97 1.01 19.92 1.39 21.74 2.14C23.55 2.9 25.21 4 26.6 5.39C27.99 6.78 29.1 8.44 29.85 10.26C30.6 12.08 30.98 14.03 30.98 16C30.98 17.96 30.6 19.92 29.85 21.73C29.1 23.55 27.99 25.21 26.6 26.6C25.21 27.99 23.55 29.1 21.73 29.85C19.92 30.6 17.96 30.98 16 30.98C14.03 30.99 12.08 30.6 10.27 29.85C7.53 28.72 5.18 26.8 3.53 24.33Z" stroke="#2E7EE0" stroke-opacity="1.000000" stroke-width="2.000000"/>
</svg>
